<?xml version="1.0" encoding="utf-8"?>
<!-- Generator: Adobe Illustrator 21.1.0, SVG Export Plug-In . SVG Version: 6.00 Build 0)  -->
<svg version="1.1" id="Слой_2_xA0_Изображение_1_"
	 xmlns="http://www.w3.org/2000/svg" xmlns:xlink="http://www.w3.org/1999/xlink" x="0px" y="0px" viewBox="0 0 324 130"
	 style="enable-background:new 0 0 324 130;" xml:space="preserve">
<style type="text/css">
	.st0{fill:#A77141;}
	.st1{fill:#E8C393;}
	.st2{fill:#FCFBFA;}
	.st3{fill:#F6E9D6;}
	.st4{fill:#857869;}
</style>
<g>
	<g>
		<path class="st0" d="M96,92c-1.3,0-2.7,0-4,0c-9.3-1.7-18.7-3.3-28-5c0-10.7,0-21.3,0-32c4-1.4,8-2.8,12-4.1
			c0.2,3.4,0.4,6.7,0.6,10.1c0.9,0,1.8,0,2.7,0.1c0.2-4,0.4-8,0.7-11.9c5-2.2,10-4.3,15-6.5C95.3,59.1,95.7,75.5,96,92z"/>
		<path class="st1" d="M96,92c-0.3-16.5-0.7-32.9-1-49.4c-0.1-0.2-0.1-0.4,0-0.6c0.7,0,1.3,0,2,0c5.1,2.4,10.1,4.8,15.2,7.2
			c0,4.1,0,8.2,0,13.8c5.3-4.3,2.8-8.6,3.6-12.2c3.7,1.4,7.4,2.8,11.2,4.2c-0.1,8.5-0.2,17-0.3,25.6c-3,1.3-8.2-2.8-9,3.3
			c-0.6,4.6,3.7,2.1,5.6,3c-8.8,1.7-17.5,3.4-26.3,5.2C96.7,92,96.3,92,96,92z"/>
		<path class="st2" d="M95,42c-0.1,0.2-0.1,0.4,0,0.6c-5,2.2-10,4.3-15,6.5c-1.3,0.6-2.7,1.2-4,1.7c-4,1.4-8,2.8-12,4.1
			c-3.8-19.9,11.3-11.5,19.6-12.9C87.3,41.5,91.2,42,95,42z"/>
		<path class="st2" d="M112.2,49.2c-5.1-2.4-10.1-4.8-15.2-7.2c5.9,0,12,0.7,17.8-0.2c11-1.7,15.8,1.7,13.2,13.2c-0.3,0-0.7,0-1,0
			c-3.7-1.4-7.4-2.8-11.2-4.2C114.6,50.3,113.4,49.7,112.2,49.2z"/>
		<path class="st2" d="M97,92c8.8-1.7,17.5-3.4,26.3-5.2c1-0.1,2.1-0.1,3.1-0.2c0.5,0.1,1.1,0.2,1.6,0.3c0.9,4.2-0.7,5.3-5,5.1
			C114.3,91.7,105.7,92,97,92z"/>
		<path class="st2" d="M64,87c9.3,1.7,18.7,3.3,28,5c-7.7,0-15.5-0.3-23.1,0.1C64.4,92.4,63.2,91,64,87z"/>
		<path class="st3" d="M128,87c-0.5-0.1-1.1-0.2-1.6-0.3c0.1-2,0.2-4.1,0.3-6.1c0.1-8.5,0.2-17,0.3-25.6c0.3,0,0.7,0,1,0
			C128,65.7,128,76.3,128,87z"/>
		<path class="st4" d="M76,50.9c1.3-0.6,2.7-1.2,4-1.7c-0.2,4-0.4,8-0.7,11.9c-0.9,0-1.8,0-2.7-0.1C76.4,57.6,76.2,54.2,76,50.9z"/>
		<path class="st4" d="M126.6,80.6c-0.1,2-0.2,4.1-0.3,6.1c-1,0.1-2.1,0.1-3.1,0.2c-2-0.9-6.2,1.6-5.6-3
			C118.4,77.8,123.7,81.9,126.6,80.6z"/>
		<path class="st4" d="M112.2,49.2c1.2,0.5,2.4,1.1,3.6,1.6c-0.8,3.5,1.7,7.8-3.6,12.2C112.2,57.4,112.2,53.3,112.2,49.2z"/>
	</g>
</g>
</svg>
