<svg xmlns="http://www.w3.org/2000/svg" viewBox="0 0 621 703"><defs><style>.cls-1{fill:#fdfdfd;}.cls-2{fill:#0c81f5;}.cls-3{fill:#f3f4f6;}</style></defs><title>Ресурс 4</title><g id="Слой_2" data-name="Слой 2"><g id="_2555_Изображение" data-name="2555 Изображение"><path class="cls-1" d="M309.42,702c-96.1,0-192.88-.77-289,.77C2.73,702.78,0,696.61,0,678.86Q1,351.42,0,24C0,6.23,2-.71,20.45.06c194.24.77,387.8.77,582,0,17,0,19.08,5.4,18.4,22.37-.68,219.84-.68,438.91,0,658.75,0,22.37-8.18,22.37-22.49,21.6C502.3,702,405.52,702,309.42,702Z"/><path class="cls-2" d="M336.68,466c18.4,17.74,34.76,33.17,51.8,49.37,19.76,18.51,23.85,40.88,4.77,61.71-17.72,18.51-34.08,14.66-51.12-7.71-42.94-56.31-59.29-55.54-101.55-.77-15.68,20.83-33.4,28.54-52.48,9.26s-15-40.11,2-59.4c15-17.74,27.94-37,43.62-57.85-11.59-6.94-27.26-17-43.62-27.77-19.08-12.34-29.31-30.08-17-54,10.9-21.6,27.94-23.14,47-12.34,46.35,27,93.37,27,139.72,0,23.17-13.11,38.85-2.31,50.43,19.28,12.27,23.14-2.73,35.48-18.4,45.51C374.85,444.37,356.45,454.4,336.68,466Z"/><path class="cls-2" d="M289.66,362.6c-60.66-.77-106.32-57.08-105.64-128,.68-70.19,49.75-125,110.41-122.65,53.84,1.54,107.68,66.34,106.32,127.28C399.39,307.06,349,363.37,289.66,362.6Z"/><path class="cls-3" d="M296.47,190.59c21.13,0,36.8,13.11,36.8,43.2,0,29.31-13.63,49.37-39.53,50.14-25.22.77-42.26-14.66-42.94-46.28S265.12,191.36,296.47,190.59Z"/></g></g></svg>